<?xml version="1.0" standalone="no"?>
<!DOCTYPE svg PUBLIC "-//W3C//DTD SVG 20010904//EN"
 "http://www.w3.org/TR/2001/REC-SVG-20010904/DTD/svg10.dtd">
<svg version="1.0" xmlns="http://www.w3.org/2000/svg"
 width="298.000000pt" height="159.000000pt" viewBox="0 0 298.000000 159.000000"
 preserveAspectRatio="xMidYMid meet">

<g transform="translate(0.000000,159.000000) scale(0.100000,-0.100000)"
fill="#000000" stroke="none">
<path d="M32 1048 l3 -383 36 -76 c124 -259 487 -454 986 -529 180 -28 519
-37 712 -21 550 47 945 216 1113 475 67 103 68 115 68 538 l0 378 -1460 0
-1461 0 3 -382z m2866 -35 l-3 -368 -29 -59 c-96 -197 -375 -364 -744 -445
-200 -45 -315 -55 -612 -56 -301 0 -380 7 -595 52 -390 81 -694 260 -796 468
l-34 70 -3 352 -3 353 1411 0 1411 0 -3 -367z"/>
<path d="M220 930 l0 -360 95 0 95 0 1 148 1 147 37 -145 c35 -138 38 -145 63
-148 24 -3 28 1 38 40 7 24 25 88 40 143 l29 100 0 -142 1 -143 90 0 90 0 0
360 0 360 -95 0 -94 0 -10 -37 c-6 -21 -27 -105 -47 -188 -21 -82 -40 -143
-42 -135 -3 8 -22 91 -42 185 l-36 170 -107 3 -107 3 0 -361z"/>
<path d="M2000 885 l0 -315 65 0 65 0 0 315 0 315 -65 0 -65 0 0 -315z"/>
<path d="M2200 1145 l0 -55 65 0 65 0 0 55 0 55 -65 0 -65 0 0 -55z"/>
<path d="M2764 1076 c-3 -8 -4 -21 -1 -28 3 -7 6 -2 7 12 l2 25 8 -25 c7 -23
8 -23 9 -3 1 27 -17 40 -25 19z"/>
<path d="M2804 1066 c1 -8 5 -18 8 -22 4 -3 5 1 4 10 -1 8 -5 18 -8 22 -4 3
-5 -1 -4 -10z"/>
<path d="M2831 1054 c0 -11 3 -14 6 -6 3 7 2 16 -1 19 -3 4 -6 -2 -5 -13z"/>
<path d="M1490 1011 c-14 -5 -40 -16 -58 -25 -31 -16 -32 -16 -32 4 0 18 -6
20 -65 20 l-65 0 0 -220 0 -220 65 0 65 0 0 123 c0 99 3 127 17 147 25 36 43
48 88 57 l40 9 3 57 c3 62 -1 65 -58 48z"/>
<path d="M875 985 c-17 -16 -25 -35 -25 -60 l0 -35 64 0 c55 0 64 3 69 20 4
15 14 20 40 20 43 0 61 -20 52 -59 -7 -34 -14 -37 -113 -46 -97 -9 -112 -27
-112 -134 0 -122 -2 -121 191 -120 l160 0 -3 205 c-3 190 -4 207 -22 220 -15
10 -53 14 -148 14 -124 0 -130 -1 -153 -25z m195 -274 c0 -54 -15 -74 -52 -69
-20 3 -23 10 -26 49 -3 43 -1 48 25 57 49 18 53 15 53 -37z"/>
<path d="M1612 998 c-35 -17 -44 -68 -40 -236 4 -199 -3 -192 182 -192 187 0
176 -14 176 215 l0 184 -26 20 c-24 19 -40 21 -148 20 -66 0 -131 -5 -144 -11z
m192 -94 c8 -20 8 -218 0 -238 -9 -22 -89 -22 -98 0 -8 20 -8 218 0 238 4 11
19 16 49 16 30 0 45 -5 49 -16z"/>
<path d="M2200 790 l0 -220 65 0 65 0 0 220 0 220 -65 0 -65 0 0 -220z"/>
<path d="M2432 1000 c-35 -15 -42 -50 -42 -219 0 -218 -6 -211 181 -211 190 0
179 -13 179 219 l0 180 -26 20 c-24 19 -40 21 -148 20 -66 0 -131 -4 -144 -9z
m186 -212 l-3 -133 -39 -3 c-24 -2 -42 2 -47 10 -10 15 -12 242 -2 251 3 4 26
7 50 7 l44 0 -3 -132z"/>
</g>
</svg>
